<svg xmlns="http://www.w3.org/2000/svg" viewBox="0 0 512 512">
  <defs>
    <linearGradient id="bg" x1="0" y1="0" x2="1" y2="1">
      <stop offset="0" stop-color="#16233c"/>
      <stop offset="1" stop-color="#0b1424"/>
    </linearGradient>
    <linearGradient id="sun" x1="0" y1="0" x2="0" y2="1">
      <stop offset="0" stop-color="#ffc95e"/>
      <stop offset="1" stop-color="#ff8f2b"/>
    </linearGradient>
  </defs>
  <rect width="512" height="512" rx="112" fill="url(#bg)"/>
  <circle cx="368" cy="132" r="70" fill="url(#sun)"/>
  <path d="M48 200 Q256 272 464 200" fill="none" stroke="#eef3fb" stroke-width="22" stroke-linecap="round"/>
  <path d="M150 236 l-26 26 v104 a16 16 0 0 0 16 16 h84 a16 16 0 0 0 16-16 v-104 l-26-26 -22 18z" fill="#ffb43a"/>
  <rect x="158" y="212" width="18" height="44" rx="8" fill="#c9d6ea"/>
  <path d="M310 248 v112 a14 14 0 0 0 14 14 h58 a14 14 0 0 0 14-14 v-112" fill="none" stroke="#5aa9ff" stroke-width="22" stroke-linejoin="round"/>
  <rect x="340" y="228" width="18" height="44" rx="8" fill="#c9d6ea"/>
</svg>
